<mxfile host="app.diagrams.net" modified="2023-05-19T19:34:01.302Z" agent="Mozilla/5.0 (Windows NT 10.0; Win64; x64) AppleWebKit/537.36 (KHTML, like Gecko) Chrome/113.0.0.0 Safari/537.36" etag="JuRC8BB3FeclA-pJnl3U" version="21.3.2" type="device">
  <diagram name="Seite-1" id="BkhGbhr2yOpOJ6NcvKdk">
    <mxGraphModel dx="2193" dy="758" grid="1" gridSize="10" guides="1" tooltips="1" connect="1" arrows="1" fold="1" page="1" pageScale="1" pageWidth="827" pageHeight="1169" math="0" shadow="0">
      <root>
        <mxCell id="0" />
        <mxCell id="1" parent="0" />
        <mxCell id="kh4E8xSYCKk-04IyTmV2-1" value="supervisor" style="rounded=0;whiteSpace=wrap;html=1;" parent="1" vertex="1">
          <mxGeometry x="354" y="560" width="120" height="60" as="geometry" />
        </mxCell>
        <mxCell id="kh4E8xSYCKk-04IyTmV2-2" value="satellite1" style="rounded=0;whiteSpace=wrap;html=1;" parent="1" vertex="1">
          <mxGeometry x="190" y="340" width="120" height="60" as="geometry" />
        </mxCell>
        <mxCell id="kh4E8xSYCKk-04IyTmV2-4" value="satelite 3" style="rounded=0;whiteSpace=wrap;html=1;" parent="1" vertex="1">
          <mxGeometry x="510" y="340" width="120" height="60" as="geometry" />
        </mxCell>
        <mxCell id="kh4E8xSYCKk-04IyTmV2-5" value="" style="endArrow=classic;html=1;rounded=0;exitX=0.25;exitY=0;exitDx=0;exitDy=0;entryX=0.5;entryY=1;entryDx=0;entryDy=0;" parent="1" source="kh4E8xSYCKk-04IyTmV2-1" target="kh4E8xSYCKk-04IyTmV2-2" edge="1">
          <mxGeometry width="50" height="50" relative="1" as="geometry">
            <mxPoint x="390" y="430" as="sourcePoint" />
            <mxPoint x="340" y="430" as="targetPoint" />
          </mxGeometry>
        </mxCell>
        <mxCell id="kh4E8xSYCKk-04IyTmV2-7" value="" style="endArrow=classic;html=1;rounded=0;exitX=0.75;exitY=0;exitDx=0;exitDy=0;entryX=0.5;entryY=1;entryDx=0;entryDy=0;" parent="1" source="kh4E8xSYCKk-04IyTmV2-1" target="kh4E8xSYCKk-04IyTmV2-4" edge="1">
          <mxGeometry width="50" height="50" relative="1" as="geometry">
            <mxPoint x="390" y="430" as="sourcePoint" />
            <mxPoint x="670" y="460" as="targetPoint" />
          </mxGeometry>
        </mxCell>
        <mxCell id="kh4E8xSYCKk-04IyTmV2-8" value="FileSystem File" style="rounded=0;whiteSpace=wrap;html=1;" parent="1" vertex="1">
          <mxGeometry x="-70" y="340" width="120" height="60" as="geometry" />
        </mxCell>
        <mxCell id="kh4E8xSYCKk-04IyTmV2-9" value="FTP" style="rounded=0;whiteSpace=wrap;html=1;" parent="1" vertex="1">
          <mxGeometry x="604" y="740" width="120" height="60" as="geometry" />
        </mxCell>
        <mxCell id="kh4E8xSYCKk-04IyTmV2-10" value="" style="endArrow=classic;html=1;rounded=0;entryX=0;entryY=0.5;entryDx=0;entryDy=0;" parent="1" source="kh4E8xSYCKk-04IyTmV2-8" target="kh4E8xSYCKk-04IyTmV2-2" edge="1">
          <mxGeometry width="50" height="50" relative="1" as="geometry">
            <mxPoint x="390" y="430" as="sourcePoint" />
            <mxPoint x="440" y="380" as="targetPoint" />
          </mxGeometry>
        </mxCell>
        <mxCell id="kh4E8xSYCKk-04IyTmV2-11" value="" style="endArrow=classic;html=1;rounded=0;exitX=1;exitY=0.5;exitDx=0;exitDy=0;entryX=0;entryY=0.5;entryDx=0;entryDy=0;" parent="1" source="BYLBY6y6WOAGRHGR7Jmt-5" target="kh4E8xSYCKk-04IyTmV2-9" edge="1">
          <mxGeometry width="50" height="50" relative="1" as="geometry">
            <mxPoint x="174" y="540" as="sourcePoint" />
            <mxPoint x="224" y="490" as="targetPoint" />
          </mxGeometry>
        </mxCell>
        <mxCell id="kh4E8xSYCKk-04IyTmV2-13" value="" style="endArrow=classic;html=1;rounded=0;entryX=0;entryY=0.5;entryDx=0;entryDy=0;" parent="1" source="kh4E8xSYCKk-04IyTmV2-2" target="kh4E8xSYCKk-04IyTmV2-4" edge="1">
          <mxGeometry width="50" height="50" relative="1" as="geometry">
            <mxPoint x="390" y="430" as="sourcePoint" />
            <mxPoint x="440" y="380" as="targetPoint" />
          </mxGeometry>
        </mxCell>
        <mxCell id="kh4E8xSYCKk-04IyTmV2-14" value="FTP" style="rounded=0;whiteSpace=wrap;html=1;" parent="1" vertex="1">
          <mxGeometry x="90" y="740" width="120" height="60" as="geometry" />
        </mxCell>
        <mxCell id="kh4E8xSYCKk-04IyTmV2-15" value="" style="endArrow=classic;html=1;rounded=0;entryX=0;entryY=0.5;entryDx=0;entryDy=0;exitX=1;exitY=0.5;exitDx=0;exitDy=0;" parent="1" source="kh4E8xSYCKk-04IyTmV2-14" target="BYLBY6y6WOAGRHGR7Jmt-5" edge="1">
          <mxGeometry width="50" height="50" relative="1" as="geometry">
            <mxPoint x="174" y="540" as="sourcePoint" />
            <mxPoint x="224" y="490" as="targetPoint" />
          </mxGeometry>
        </mxCell>
        <mxCell id="kh4E8xSYCKk-04IyTmV2-17" value="FileSystem File" style="rounded=0;whiteSpace=wrap;html=1;" parent="1" vertex="1">
          <mxGeometry x="730" y="340" width="120" height="60" as="geometry" />
        </mxCell>
        <mxCell id="kh4E8xSYCKk-04IyTmV2-18" value="" style="endArrow=classic;html=1;rounded=0;entryX=0;entryY=0.5;entryDx=0;entryDy=0;exitX=1;exitY=0.5;exitDx=0;exitDy=0;" parent="1" source="kh4E8xSYCKk-04IyTmV2-4" target="kh4E8xSYCKk-04IyTmV2-17" edge="1">
          <mxGeometry width="50" height="50" relative="1" as="geometry">
            <mxPoint x="390" y="430" as="sourcePoint" />
            <mxPoint x="440" y="380" as="targetPoint" />
          </mxGeometry>
        </mxCell>
        <mxCell id="kh4E8xSYCKk-04IyTmV2-20" value="FTP Data" style="text;html=1;strokeColor=none;fillColor=none;align=center;verticalAlign=middle;whiteSpace=wrap;rounded=0;" parent="1" vertex="1">
          <mxGeometry x="250" y="750" width="60" height="20" as="geometry" />
        </mxCell>
        <mxCell id="kh4E8xSYCKk-04IyTmV2-21" value="FTP Data" style="text;html=1;strokeColor=none;fillColor=none;align=center;verticalAlign=middle;whiteSpace=wrap;rounded=0;" parent="1" vertex="1">
          <mxGeometry x="504" y="750" width="60" height="20" as="geometry" />
        </mxCell>
        <mxCell id="kh4E8xSYCKk-04IyTmV2-22" value="satellite&amp;nbsp;1 data" style="text;html=1;strokeColor=none;fillColor=none;align=center;verticalAlign=middle;whiteSpace=wrap;rounded=0;" parent="1" vertex="1">
          <mxGeometry x="90" y="370" width="60" height="30" as="geometry" />
        </mxCell>
        <mxCell id="kh4E8xSYCKk-04IyTmV2-23" value="satellite&amp;nbsp;1 data" style="text;html=1;strokeColor=none;fillColor=none;align=center;verticalAlign=middle;whiteSpace=wrap;rounded=0;" parent="1" vertex="1">
          <mxGeometry x="383.5" y="370" width="60" height="30" as="geometry" />
        </mxCell>
        <mxCell id="kh4E8xSYCKk-04IyTmV2-25" value="sync jobs, storage ..." style="text;html=1;strokeColor=none;fillColor=none;align=center;verticalAlign=middle;whiteSpace=wrap;rounded=0;" parent="1" vertex="1">
          <mxGeometry x="200" y="460" width="100" height="30" as="geometry" />
        </mxCell>
        <mxCell id="BYLBY6y6WOAGRHGR7Jmt-4" value="sync jobs, storage ..." style="text;html=1;strokeColor=none;fillColor=none;align=center;verticalAlign=middle;whiteSpace=wrap;rounded=0;" vertex="1" parent="1">
          <mxGeometry x="520" y="470" width="100" height="30" as="geometry" />
        </mxCell>
        <mxCell id="BYLBY6y6WOAGRHGR7Jmt-5" value="satellite 2" style="rounded=0;whiteSpace=wrap;html=1;" vertex="1" parent="1">
          <mxGeometry x="354" y="740" width="120" height="60" as="geometry" />
        </mxCell>
        <mxCell id="BYLBY6y6WOAGRHGR7Jmt-6" value="" style="endArrow=classic;html=1;rounded=0;entryX=0.5;entryY=0;entryDx=0;entryDy=0;exitX=0.5;exitY=1;exitDx=0;exitDy=0;" edge="1" parent="1" source="kh4E8xSYCKk-04IyTmV2-1" target="BYLBY6y6WOAGRHGR7Jmt-5">
          <mxGeometry width="50" height="50" relative="1" as="geometry">
            <mxPoint x="410" y="600" as="sourcePoint" />
            <mxPoint x="460" y="550" as="targetPoint" />
          </mxGeometry>
        </mxCell>
        <mxCell id="BYLBY6y6WOAGRHGR7Jmt-8" value="sync jobs, storage ..." style="text;html=1;strokeColor=none;fillColor=none;align=center;verticalAlign=middle;whiteSpace=wrap;rounded=0;" vertex="1" parent="1">
          <mxGeometry x="420" y="660" width="100" height="30" as="geometry" />
        </mxCell>
        <mxCell id="BYLBY6y6WOAGRHGR7Jmt-10" value="ensure this is job owner of it own FileSystem backups.&lt;br&gt;If neccesary it will also make a archive before.&lt;br&gt;&lt;br&gt;(don&#39;t want get issues.)" style="text;html=1;strokeColor=none;fillColor=none;align=center;verticalAlign=middle;whiteSpace=wrap;rounded=0;" vertex="1" parent="1">
          <mxGeometry x="180" y="230" width="140" height="100" as="geometry" />
        </mxCell>
        <mxCell id="BYLBY6y6WOAGRHGR7Jmt-13" value="Database" style="shape=process;whiteSpace=wrap;html=1;backgroundOutline=1;" vertex="1" parent="1">
          <mxGeometry x="474" y="580" width="96" height="40" as="geometry" />
        </mxCell>
        <mxCell id="BYLBY6y6WOAGRHGR7Jmt-14" value="Frontend" style="rounded=0;whiteSpace=wrap;html=1;" vertex="1" parent="1">
          <mxGeometry x="110" y="565" width="110" height="50" as="geometry" />
        </mxCell>
        <mxCell id="BYLBY6y6WOAGRHGR7Jmt-17" value="" style="endArrow=classic;html=1;rounded=0;exitX=1;exitY=0.5;exitDx=0;exitDy=0;entryX=0;entryY=0.5;entryDx=0;entryDy=0;" edge="1" parent="1" source="BYLBY6y6WOAGRHGR7Jmt-14" target="kh4E8xSYCKk-04IyTmV2-1">
          <mxGeometry width="50" height="50" relative="1" as="geometry">
            <mxPoint x="394" y="570" as="sourcePoint" />
            <mxPoint x="260" y="410" as="targetPoint" />
          </mxGeometry>
        </mxCell>
        <mxCell id="BYLBY6y6WOAGRHGR7Jmt-18" value="graphql / ws" style="text;html=1;strokeColor=none;fillColor=none;align=center;verticalAlign=middle;whiteSpace=wrap;rounded=0;" vertex="1" parent="1">
          <mxGeometry x="230" y="565" width="100" height="30" as="geometry" />
        </mxCell>
        <mxCell id="BYLBY6y6WOAGRHGR7Jmt-19" value="satellite&amp;nbsp;1 data" style="text;html=1;strokeColor=none;fillColor=none;align=center;verticalAlign=middle;whiteSpace=wrap;rounded=0;" vertex="1" parent="1">
          <mxGeometry x="650" y="370" width="60" height="30" as="geometry" />
        </mxCell>
        <mxCell id="BYLBY6y6WOAGRHGR7Jmt-23" value="if neccesary satellite will store it in own filesystem and make archive before.&lt;br&gt;&lt;br&gt;We have to warn the user in this case in FE" style="text;html=1;strokeColor=none;fillColor=none;align=center;verticalAlign=middle;whiteSpace=wrap;rounded=0;" vertex="1" parent="1">
          <mxGeometry x="344" y="810" width="140" height="80" as="geometry" />
        </mxCell>
        <mxCell id="BYLBY6y6WOAGRHGR7Jmt-25" value="InfluxDB" style="shape=process;whiteSpace=wrap;html=1;backgroundOutline=1;" vertex="1" parent="1">
          <mxGeometry x="754" y="550" width="96" height="40" as="geometry" />
        </mxCell>
        <mxCell id="BYLBY6y6WOAGRHGR7Jmt-26" value="" style="endArrow=none;dashed=1;html=1;dashPattern=1 3;strokeWidth=2;rounded=0;exitX=1;exitY=0.156;exitDx=0;exitDy=0;entryX=0;entryY=0.5;entryDx=0;entryDy=0;exitPerimeter=0;" edge="1" parent="1" source="kh4E8xSYCKk-04IyTmV2-1" target="BYLBY6y6WOAGRHGR7Jmt-25">
          <mxGeometry width="50" height="50" relative="1" as="geometry">
            <mxPoint x="540" y="620" as="sourcePoint" />
            <mxPoint x="590" y="570" as="targetPoint" />
          </mxGeometry>
        </mxCell>
      </root>
    </mxGraphModel>
  </diagram>
</mxfile>
